<?xml version="1.0" encoding="UTF-8"?>
<svg version="1.1" viewBox="0 0 1600 868" width="1280" height="1280" xmlns="http://www.w3.org/2000/svg">
<path transform="translate(0)" d="m0 0h1600v868h-1600z" fill="none"/>
<path transform="translate(775,335)" d="m0 0 5 1 4 7 1 5v182l-2 8-4 6-8 7-5 2h-18l-19-4-36-12-29-14-12-8-10-8-7-7-4-11 1-11 5-10 7-9h2l2-4 12-11 87-87 7-8 10-9 7-4z" fill="#F29815"/>
<path transform="translate(979,131)" d="m0 0h12l8 3 10 9 10 15 12 22 8 19 8 24 6 26 1 13-3 10-4 5-6 4-8 3-10 1h-173l-9-2-5-4v-6l5-8 11-12 38-38 7-8 69-69 11-6z" fill="#F29815"/>
<path transform="translate(815,335)" d="m0 0 6 2 9 7 121 121 6 9 3 8v10l-4 8-11 11-17 11-19 10-20 8-24 8-23 5h-17l-8-4-5-4-5-10-1-6v-185l3-5 3-3z" fill="#F29915"/>
<path transform="translate(559,306)" d="m0 0h184l9 1 3 5-1 7-7 10-8 8-7 8-56 56h-2l-2 4h-2l-2 4h-2l-2 4h-2l-2 4h-2l-2 4-28 28-11 8-8 3h-8l-9-3-10-9-10-15-13-25-8-19-8-24-5-22-1-6v-9l3-9 7-8 7-4z" fill="#F29815"/>
<path transform="translate(598,131)" d="m0 0h11l10 4 8 6 57 57v2l4 2v2l3 1 7 8 50 50 7 10 1 4-6 6-3 1-12 1h-171l-9-2-9-5-6-7-3-9v-9l4-20 7-24 10-25 10-20 13-20 6-7 8-5z" fill="#F29815"/>
<path transform="translate(824,37)" d="m0 0h17l24 5 24 8 18 8 23 12 18 12 8 9 4 9v9l-4 10-12 13-8 9h-2l-2 4-15 14-90 90-8 5-7-1-4-4-2-9v-180l3-10 9-10z" fill="#EC9140"/>
<path transform="translate(751,36)" d="m0 0h10l9 3 8 7 5 8 1 3 1 38v137l-1 13-3 6-3 3h-6l-11-8-121-121-6-9-2-4-1-11 3-10 7-8 18-12 17-10 22-10 31-10z" fill="#D9BD22"/>
<path transform="translate(843,306)" d="m0 0h187l11 3 5 4 5 7 2 6v16l-5 23-9 27-9 20-10 19-10 15-9 10-11 4h-7l-11-4-10-9-118-118-8-11v-6l4-5z" fill="#D9BD21"/>
<path transform="translate(878,624)" d="m0 0h81l12 2 9 4 9 6 6 8 4 9v15l-4 9-6 9-9 8-6 3v2l6 3 8 9 4 9 1 5v13l-2 9-5 9-9 10-7 6-13 6-10 3-10 2-12 1h-79l-2-2 12-55 19-90z" fill="#EC9140"/>
<path transform="translate(49,624)" d="m0 0h81l14 3 10 5 9 8 6 12 1 8-2 12-6 11-6 7-7 5-5 1 1 3 8 6 6 7 4 11v20l-4 9-8 11-9 8-12 6-12 4-11 2-13 1h-78l-1-3 15-70 17-80z" fill="#EC9140"/>
<path transform="translate(423,615)" d="m0 0h52l-2 12-16 76-16 74-3 7h-38l-3-1-2-15-5 3-10 8-11 5-14 2-11-1-8-3-6-4-6-8-3-9-1-7v-12l3-19 4-13 8-16 7-8 13-9 11-4 16-1 10 3 6 4 6 8 1 5h2l5-26z" fill="#EC9140"/>
<path transform="translate(1253,615)" d="m0 0h51l-1 10-11 52-19 89-4 16-1 2h-40l-3-9-2-7-3 1-6 7-12 7-16 3-13-1-10-4-8-8-4-9-1-7v-20l4-20 6-15 6-10 9-9 11-7 9-3h21l9 4 5 4 5 9 2 1 2-13 12-56z" fill="#EC913F"/>
<path transform="translate(1398,615)" d="m0 0h51l-1 10-9 44-23 107-3 8h-38l-3-1-4-15-3 1-6 7-10 6-10 3-15 1-12-3-8-6-5-6-3-9-1-5v-17l3-18 5-15 6-12 11-12 9-6 12-4h20l9 4 6 5 5 8h1l10-49 5-25z" fill="#EC9140"/>
<path transform="translate(522,672)" d="m0 0h8l12 4 8 7 3 6v2l3-1 9-14 1-1h41l-1 10-12 57-8 36-6 15-7 10-8 8-10 6-13 5-9 2-24 2h-16l-23-1-2-1 4-17 1-1 14 1h24l9-2 7-6 6-16 3-18-12 12-8 4-13 3h-8l-10-2-8-5-6-7-4-10-1-7v-15l3-18 6-16 7-12 9-10 10-6 11-3z" fill="#EC913F"/>
<path transform="translate(191,675)" d="m0 0h51l-2 13-11 51-2 16 2 5 7 1 9-4h2l4-18 11-51 3-13h51l-1 11-19 89-3 9h-40l-2-3-3-13-5 2-9 8-12 6-14 2-15-2-10-6-7-10-2-10 1-13 15-69z" fill="#EC9140"/>
<path transform="translate(1021,675)" d="m0 0h50l-1 10-11 52-2 11v12l7 1 9-3 4-4 8-35 9-43 1-1h51l-1 9-19 89-3 10-1 1h-35l-6-2-3-15-6 4-10 8-10 5-16 2-13-2-9-5-6-7-3-6-1-5v-12l8-38 7-31z" fill="#EC9140"/>
<path transform="translate(674,673)" d="m0 0h30l17 3 10 4 6 5 5 10 1 3v16l-4 13-4 6-70 1-1 5v23l3 5h7l7-4 6-7 5-9h40l-1 11-4 14-4 4-10 4-17 4-25 2-20-2-12-3-10-5-8-8-7-14-2-11v-13l3-15 5-11 4-6 5-6 10-8 16-7z" fill="#EC9140"/>
<path transform="translate(1449,675)" d="m0 0h52l1 1 4 37 3 33 3-3 17-32 20-36h26l-2 6-12 21-6 12-12 21-15 27-13 23-8 12-9 10-7 6-14 8-12 3-12 1-29 1-1-5 3-12 2-1 20-1 9-3 5-6 1-3v-12l-9-67-6-40z" fill="#EC9140"/>
<path transform="translate(809,642)" d="m0 0h27l-4 20-3 13h19l-2 12-2 5-19 1-12 60v11l15 2v8l-2 9-1 1-21 2h-18l-13-4-8-6-3-6-1-4v-16l11-55 1-3h-18l-1-5 3-12 20-6 11-6 12-11z" fill="#EC9140"/>
<path transform="translate(915,708)" d="m0 0h13l6 4 3 4 2 6v14l-5 16-6 9-5 4-9 3h-11l1-11 10-48z" fill="currentColor"/>
<path transform="translate(85,708)" d="m0 0h13l6 3 5 10 1 10-3 14-4 9-4 6-7 6-8 2h-10l-1-1 1-8 9-43z" fill="currentColor"/>
<path transform="translate(1364,697)" d="m0 0 7 1 7 6v8l-8 36-4 8-5 4-5 2-7-1-3-6v-12l3-18 4-13 5-9z" fill="currentColor"/>
<path transform="translate(390,697)" d="m0 0 7 1 6 5 1 4-8 39-3 8-7 6-5 2-6-1-3-4-1-4 1-16 5-22 6-12z" fill="currentColor"/>
<path transform="translate(1219,697)" d="m0 0 7 1 7 6-1 11-6 28-3 10-5 6-7 3h-5l-4-4-1-2v-15l3-17 5-14 6-10z" fill="currentColor"/>
<path transform="translate(536,697)" d="m0 0 5 1 7 5 1 7-7 33-3 9-8 7-2 1h-8l-3-4-1-3v-12l4-20 5-13 6-8z" fill="currentColor"/>
<path transform="translate(101,641)" d="m0 0h10l5 3 4 5 2 8-1 11-5 12-5 7-11 4h-10l1-10 8-37z" fill="currentColor"/>
<path transform="translate(931,641)" d="m0 0h10l6 4 3 5 1 4v11l-3 11-7 10-8 4-5 1h-8l-1-3 10-45z" fill="currentColor"/>
<path transform="translate(689,690)" d="m0 0 5 2 3 5 1 11-2 11-2 2h-25l-1-1 1-8 8-16 6-5z" fill="currentColor"/>
<path transform="translate(1120,779)" d="m0 0h2l-1 5h-19v-1h15v-2z" fill="#F39915"/>
<path transform="translate(822,38)" d="m0 0 3 1-9 7-4 2 2-4 6-5z" fill="#F19621"/>
<path transform="translate(1323,681)" d="m0 0h2l-1 3-4 1v2l-8 6 2-4z" fill="#F09527"/>
<path transform="translate(830,675)" d="m0 0h18l-1 5-2-4h-15z" fill="#F2981A"/>
</svg>
