<?xml version="1.0" encoding="UTF-8"?>
<svg version="1.1" viewBox="0 0 1624 888" width="1280" height="1280" xmlns="http://www.w3.org/2000/svg">
<path transform="translate(0)" d="m0 0h1624v888h-1624z" fill="none"/>
<path transform="translate(832,360)" d="m0 0h8l13 10 38 38v2l4 2v2l4 2 68 68 8 10 5 11v11l-3 7-7 8-17 12-16 9-17 8-19 7-19 6-18 4h-19l-8-4-8-9-3-10-1-10v-119l1-57 4-6z" fill="#F97449"/>
<path transform="translate(846,60)" d="m0 0h10l30 6 20 7 15 6 16 8 13 7 14 9 10 9 6 11v10l-4 10-9 10-7 8-108 108-11 8-2 1h-6l-5-4-2-8-1-10v-164l1-11 5-10 8-8z" fill="#F78838"/>
<path transform="translate(794,359)" d="m0 0h5l5 8 1 4v185l-3 8-8 9-6 4h-22l-24-6-28-10-20-9-13-7-17-12-9-9-3-6-1-4v-7l3-10 6-9 12-13 34-34h2l2-4h2l2-4h2l2-4h2l2-4h2l2-4h2l2-4 4-4h2l2-4 39-39 12-9z" fill="#F97449"/>
<path transform="translate(1e3 155)" d="m0 0h12l9 4 6 5 10 14 12 22 8 17 11 33 5 21 1 15-3 10-4 5-9 5-5 2-6 1h-179l-9-3-3-4v-6l6-9 10-10 7-8 84-84 7-8 12-12 11-7z" fill="#F78838"/>
<path transform="translate(876,329)" d="m0 0h157l19 1 9 3 8 7 4 9 1 11-5 25-12 36-14 29-11 18-11 12-10 4h-9l-9-3-10-8-111-111-7-8-6-7-3-5v-6l2-4 5-2z" fill="#F97449"/>
<path transform="translate(769,60)" d="m0 0h16l9 5 7 8 3 6 1 5v181l-3 9-5 5-5-1-9-6-7-7-4-3v-2l-4-2v-2l-4-2-96-96v-2l-3-1-7-8-6-10-1-5v-8l4-11 8-8 17-11 16-9 17-8 25-9 23-6z" fill="#F78838"/>
<path transform="translate(590,329)" d="m0 0h153l24 1 6 2 2 4v6l-7 10-14 15-106 106-11 8-8 3h-10l-10-5-8-8-11-18-13-25-9-23-6-20-5-23v-11l3-9 8-8 6-3z" fill="#F97449"/>
<path transform="translate(618,155)" d="m0 0h11l11 4 14 12 15 16 86 86 7 8 9 9 5 8-1 5-7 5-6 1h-181l-11-4-9-8-3-6-1-5v-10l5-23 8-26 9-21 11-22 12-18 9-8z" fill="#F78838"/>
<path transform="translate(898,648)" d="m0 0h84l13 3 11 6 9 10 4 9v16l-4 10-6 8-9 8-6 3-1 2 6 2 8 8 5 11 1 3v16l-3 10-6 10-5 6-11 8-16 7-13 3-11 1h-84l1-7 12-55 20-95z" fill="#F78838"/>
<path transform="translate(68,648)" d="m0 0h85l12 3 11 6 8 8 5 10 1 5v8l-4 13-7 10-10 8-4 2v2l9 6 6 8 3 9 1 6-1 16-6 12-9 10-8 6-14 7-17 4-12 1h-82l1-8 23-108z" fill="#F78838"/>
<path transform="translate(443,639)" d="m0 0h52l-1 9-23 108-10 45-2 7h-40l-3-5-1-10-5 2-12 9-10 5-12 2h-8l-11-4-9-7-6-10-2-9v-18l3-17 6-18 7-12 8-8 10-7 11-4 8-1h11l11 4 7 7 3 6v2h2l5-26 10-47z" fill="#F78838"/>
<path transform="translate(1273,639)" d="m0 0h51l-1 11-12 56-12 57-8 37-3 8h-40l-3-8-2-7h-3l-5 6-15 9-14 3h-9l-12-5-9-8-5-10-1-6v-22l4-20 6-15 6-9 4-5 12-9 12-5 9-1h10l11 4 7 6 4 7 2 1 1-9 14-65z" fill="#F78838"/>
<path transform="translate(1418,639)" d="m0 0h52l-5 26-16 75-13 60-3 8h-41l-4-15-4 2-8 7-14 7-12 2h-7l-11-4-9-7-4-5-4-13v-20l3-17 5-15 6-11 9-10 9-7 12-5 19-1 11 4 8 7 3 5v2h3l1-12 11-53 2-9z" fill="#F78838"/>
<path transform="translate(539,696)" d="m0 0h12l11 4 8 7 4 7h2l9-15h42l-1 11-15 71-6 25-6 13-6 8-4 5-10 7-14 6-11 3-17 2h-28l-21-1 1-8 3-10 1-1 20 1h14l12-2 6-4 6-12 4-18 1-5-3 1-4 6-10 7-9 3-6 1h-13l-10-4-8-7-5-8-2-11v-18l3-17 6-16 7-11 9-10 9-6 10-3z" fill="#F97449"/>
<path transform="translate(211,699)" d="m0 0h51l-1 9-11 51-2 11v14h10l7-3 3-6 9-40 7-34 1-2h51l-1 12-16 75-4 17-2 5h-41l-4-15-4-1-2 4-13 9-12 5h-17l-10-3-9-7-5-8-2-8v-9l5-25 11-50z" fill="#F97449"/>
<path transform="translate(1040,699)" d="m0 0h51l-1 11-11 51-2 12v8l2 3h8l8-4 4-11 14-65 2-5h51l-1 10-12 56-8 36-3 7h-39l-3-5-2-10-5 1-8 7-10 6-8 3h-18l-11-4-10-9-4-11v-14l8-38z" fill="#F97449"/>
<path transform="translate(692,697)" d="m0 0h34l16 3 10 4 7 7 4 10v19l-5 13-3 4-70 1-1 6v21l4 6 8-1 8-6 5-8 3-5h41l-3 15-3 11-3 3-14 5-12 3-19 2h-16l-19-3-10-4-8-6-7-8-5-10-2-9v-18l4-17 6-11 9-10 11-8 16-6z" fill="#F78838"/>
<path transform="translate(1594,698)" d="m0 0 1 3-12 23-13 23-15 27-12 21-9 16-10 14-5 6-14 10-11 5-7 2-8 1-23 1h-13l1-10 2-7 2-1 17-1 10-2 6-5 2-7v-9l-8-60-7-45v-4h54l4 35 3 36 3-3 12-23 12-22 10-18 3-5z" fill="#F97449"/>
<path transform="translate(830,665)" d="m0 0 26 1-2 12-4 17v3l18 1-1 10-3 7h-19l-3 18-8 38-1 5v8l3 3 13 2-2 13-2 5-22 3h-18l-10-4-6-4-7-8-1-3v-20l9-43 2-12-18-1 1-9 2-8 13-4 13-5 11-8 9-9z" fill="#F78838"/>
<path transform="translate(173,731)" d="m0 0 1 2h2l3 6 3 3 2 10-1 16-6 12-9 10-8 6-14 7-17 4-12 1h-82l1-8 12-56 4-7 2 2 8 1 4-1 2 1 1 3 1-2 9 1 5-1v5h8l1 5 5 1 1-2 1 4-1 11-5 22v4h8l10-2 8-7 6-13 2-8v-15l-2-8 4 1 10 3 4-4h3l1 2 3-3v3l8-3h5l1 3 7 3 2-3h-2l-1-5z" fill="#F97449"/>
<path transform="translate(1e3 733)" d="m0 0 5 2 5 12v16l-3 10-6 10-5 6-11 8-16 7-13 3-11 1h-84l1-7 12-55 2-3 1-5 3-1 4 2h10l4 2h6l3 2v5l4 1 4-3 4 1 2 4 3-3h2l1 3v7l-6 27-1 7 15-2 8-4 6-9 4-10 2-9v-12l-2-5v-3l3-1v2l6 1 7 1v-3h2l2 4 6-3 9-2 2-1 3 5v2h5v-6z" fill="#F97449"/>
<path transform="translate(1401,733)" d="m0 0 5 2 4 2 3 1v2l13 1v2l3 1v4l3-1 1-2h3l3 5 2 1 1-3h2l1 10-9 42-3 8h-41l-4-15-4 2-8 7-14 7-12 2h-7l-11-4-9-7-4-5-4-13v-20l3-17 2-7 3-1 2 2 3 1 2 4h6l10-5 1 2h8l2 1v2l3 1v3h7l1 5-1 24 3 7h8l7-4 3-6 6-25 3-14z" fill="#F97449"/>
<path transform="translate(426,734)" d="m0 0 6 3 10 2v2l8 1 4 2v7h3l1-6 4 2v2l3-1 4 10v7l-8 36-2 7h-40l-3-5-1-10-5 2-12 9-10 5-12 2h-8l-11-4-9-7-6-10-2-9v-18l3-17 2-7h3l1-2v3l5 2 3 2 6-2 10-3 2 2 9 1 1 3 4 1v5l5-3v9l-1 6v17l2 4h9l6-4 4-8 7-31z" fill="#F97449"/>
<path transform="translate(1255,735)" d="m0 0 5 2 11 2 1 2 5 1 13 4v3h2v3l3-1v2l3-1 1 4v7l-8 37-3 8h-40l-3-8-2-7h-3l-5 6-15 9-14 3h-9l-12-5-9-8-5-10-1-6v-22l4-20 3-3h3v3l4 1 2 2 4 1 9-4 5-1v3h7l4 3 1 3h3 3l1 4-2 13-1 14h2l3 5h8l7-4 4-10 5-22 2-1 2-11z" fill="#F97449"/>
<path transform="translate(539,696)" d="m0 0h12l11 4 8 7 4 7h2l9-15h42l-1 11-10 47-3-4h-3l-2-5 1-2h-5v-2l-7-1h-3l-3-2-8 3-5-1-4-4-4-2 1-2h-2v3h-2l-1 10-6 25-2 4-8 6-2 1h-6l-4-5-1-3v-22l1-3-1-5h-2v2h-4l-1-3-4-2-7-1-2-2-7 4-7 2-7-3-4-1-3 10h-1l1-9 6-16 7-11 9-10 9-6 10-3z" fill="#F78838"/>
<path transform="translate(638,735)" d="m0 0h2l-1 6h3l4 6 4-1 8-3 3-2h7l2 2h5l5 5 4 1 2-7 1 2h27l3-1v2h3l3 7 1 4-38 1-2 7v21l4 6 8-1 8-6 5-8 3-5h41l-3 15-3 11-3 3-14 5-12 3-19 2h-16l-19-3-10-4-8-6-7-8-5-10-2-9v-18h2l1-9z" fill="#F97549"/>
<path transform="translate(805,738)" d="m0 0h2l2 4 5-2h6l2 2 2 1 4 1 3 9 2-3h3l1 7-4 20v8l3 3 13 2-2 13-2 5-22 3h-18l-10-4-6-4-7-8-1-3v-20l6-29h2l1-4 5 1 2-1z" fill="#F97449"/>
<path transform="translate(802,518)" d="m0 0h1v30l-3 9-3 4v4h2l-1 4-8 7-2 1h-22l-24-6-28-10-20-9-3-3 1-4-9-5v-2h-2l-1-5 2-3h4l1-2 5 2 3 1v2l10 3h3v2l7 1 5 1v2l7 1 6 2v2l5-1 1 3 6-1 4 2h5l-8-3v-2h-5l2-2-1-2h2l1-2 2 2h6v-2l3 1 2 5h4l1-3 5 2 9-1h4l2-3h2l2-2-3-4 2-2 2-6 2-1 1 4h2l4-1 2 1 1-3 1-4z" fill="#FE6B59"/>
<path transform="translate(1468,699)" d="m0 0h54l4 35 1 18h-3l-5 3-4-2-4-6-4 2-4 1-3-1-1-5-1-2-5 3-4 1v-4l-6 3h-6l-2 3-7-45z" fill="#F78838"/>
<path transform="translate(1040,699)" d="m0 0h51l-1 11-10 46-2-1 1-5-5 1-2-4h-2l-2-3-10-2-4-1v-2l-7 3-6 2v-2h-2v-2l-7-2 1-8z" fill="#F78938"/>
<path transform="translate(285,699)" d="m0 0h51l-1 12-10 47-3-3h-2l-6-8v-4l-4 1v-2h-5-3-2l-2-4h-3l-1 2-8 2-4-7h-4l1-9 5-25z" fill="#F78838"/>
<path transform="translate(1115,699)" d="m0 0h51l-1 10-10 47-6-3-3-6-4-4-1 2h-3l-1-3-4-2-4 1-1-3-8 2-5-1v-2l-4-2-3-1v6l-2 1 1-9 7-32z" fill="#F78838"/>
<path transform="translate(211,699)" d="m0 0h51l-1 9-10 46-2-3-1-2h-4l-2-4h-2v-2l-5 1v-2h-11l-1-3-5 2h-6l-3-3-5-2-1 4-1-4 8-36z" fill="#F78838"/>
<path transform="translate(555,801)" d="m0 0h2l3 7-1 4h2v6h2l1 2h6v2h2l1 2 3-1 2-2 1 2h3 4l-1 4 4 2v3l-10 7-14 6-11 3-17 2h-28l-21-1 1-8 3-10 1-1 20 1h14l12-2 6-4 6-12 2-7h2z" fill="#FE6C57"/>
<path transform="translate(829,507)" d="m0 0h1l1 11 3 7-1 4 4 11 3 7 2 1v-5l6 5 3 6 6 4 6-2 7 2h8l15-4 6-2 7-1 4-1v2h11l9-4 10-3 4-1-1 5-23 11-19 7-19 6-18 4h-19l-8-4-8-9-1-2v-47z" fill="#FE6B58"/>
<path transform="translate(935,732)" d="m0 0h12l6 3 5 8 1 3v12l-4 15-6 11-8 6-9 2h-9v-7l11-51z" fill="currentColor"/>
<path transform="translate(106,732)" d="m0 0h12l5 3 4 5 2 6v15l-4 13-5 9-8 7-10 2h-8l-1-5 9-41 2-12z" fill="currentColor"/>
<path transform="translate(1385,721)" d="m0 0 6 1 6 5 1 2-1 11-7 30-3 8-5 5-4 2h-8l-3-4-1-4 1-17 5-21 6-12z" fill="currentColor"/>
<path transform="translate(1240,721)" d="m0 0 6 1 7 6-1 10-6 28-3 10-3 5-7 4h-8l-4-6v-11l3-19 5-15 6-9z" fill="currentColor"/>
<path transform="translate(411,721)" d="m0 0 5 1 7 6v8l-8 36-4 8-7 5h-9l-3-5v-17l4-20 5-12 6-8z" fill="currentColor"/>
<path transform="translate(556,721)" d="m0 0 5 1 7 5 1 5-6 30-4 13-5 5-6 4h-6l-4-5-1-3v-10l4-20 4-12 6-9z" fill="currentColor"/>
<path transform="translate(1485,810)" d="m0 0 2 4 3 5v2h3l2 3 4 1 1-2v2l2 1 1 3 10-1 2 3-1 4-11 7-12 5-12 2-23 1h-13l1-10 2-7 2-1 17-1 10-2 6-5 1-2h2z" fill="#FE6C57"/>
<path transform="translate(1594,698)" d="m0 0 1 3-12 23-13 23-5 9-1-2h-3l-1-5-2-2-5-1-3 2v-3h-3v-6l18-34 4-6z" fill="#F78838"/>
<path transform="translate(951,665)" d="m0 0h9l6 3 4 7 1 3v10l-4 13-6 9-8 4-12 1-1-1 1-10 8-37z" fill="currentColor"/>
<path transform="translate(121,665)" d="m0 0h10l6 4 3 4 1 4v14l-4 11-6 8-8 4-13 1 1-10 8-36z" fill="currentColor"/>
<path transform="translate(709,714)" d="m0 0 5 2 3 5v16l-2 7-1 1h-19l-7-1 1-7 8-16 5-5z" fill="currentColor"/>
<path transform="translate(783,365)" d="m0 0 2 1-126 126v-3l14-15 33-33h2l2-4h2l2-4h2l2-4h2l2-4h2l2-4h2l2-4 4-4h2l2-4 39-39z" fill="#F8813E"/>
<path transform="translate(590,329)" d="m0 0h153l24 1 5 1v1h-191l-9 1 2-2z" fill="#F78938"/>
<path transform="translate(827,366)" d="m0 0 1 3v190h-1l-2-15v-119l1-57z" fill="#F78938"/>
<path transform="translate(654,500)" d="m0 0 4 2v7l7-1 1 7 1 4-2 2-11 1-3-8v-7l1-5h2z" fill="#FE6D57"/>
<path transform="translate(931,801)" d="m0 0 7 1 3 3 7 1v1h-27l5-5z" fill="#FF6A5B"/>
<path transform="translate(798,530)" d="m0 0 3 1 1 7-1 11-3-1-1-4-2-1h2l2-10z" fill="#FA744A"/>
<path transform="translate(958,534)" d="m0 0 1 2-3 5-8 5h-3l2-4 5-4h2v-2z" fill="#FD7052"/>
<path transform="translate(802,518)" d="m0 0h1v21l-2-1-1-7-2-1v2l2 1-2 3-1-3-2-2 4-2 1-3 1-4z" fill="#FF6A5B"/>
<path transform="translate(713,555)" d="m0 0 7 2-1 5-5-1-5-2 2-1 1-2z" fill="#F97747"/>
<path transform="translate(750,550)" d="m0 0 4 1v2l4 1-6 2-4-1 2-2z" fill="#FC6F51"/>
</svg>
